# Blender 5.1.0
# www.blender.org
mtllib flat.mtl
o Cube
v -20.759514 0.000000 19.861618
v -20.759514 1.252201 19.861618
v -20.759514 0.000000 -20.185341
v -20.759514 1.252201 -20.185341
v 19.508778 0.000000 19.861618
v 19.508778 1.252201 19.861618
v 19.508778 0.000000 -20.185341
v 19.508778 1.252201 -20.185341
vn -1.0000 -0.0000 -0.0000
vn -0.0000 -0.0000 -1.0000
vn 1.0000 -0.0000 -0.0000
vn -0.0000 -0.0000 1.0000
vn -0.0000 -1.0000 -0.0000
vn -0.0000 1.0000 -0.0000
vt 0.046645 0.997252
vt 0.031097 0.997252
vt 0.031097 0.500000
vt 0.046645 0.500000
vt 0.015548 1.000000
vt 0.000000 1.000000
vt 0.000000 0.500000
vt 0.015548 0.500000
vt 0.062193 0.997252
vt 0.046645 0.997252
vt 0.046645 0.500000
vt 0.062193 0.500000
vt 0.031096 1.000000
vt 0.015548 1.000000
vt 0.015548 0.500000
vt 0.031097 0.500000
vt 0.497252 0.000000
vt 0.497252 0.500000
vt 0.000000 0.500000
vt 0.000000 0.000000
vt 0.994504 0.000000
vt 0.994503 0.500000
vt 0.497252 0.500000
vt 0.497252 0.000000
s 0
usemtl Material.001
f 1/1/1 2/2/1 4/3/1 3/4/1
f 3/5/2 4/6/2 8/7/2 7/8/2
f 7/9/3 8/10/3 6/11/3 5/12/3
f 5/13/4 6/14/4 2/15/4 1/16/4
f 3/17/5 7/18/5 5/19/5 1/20/5
f 8/21/6 4/22/6 2/23/6 6/24/6
